<svg width="153" height="36" viewBox="0 0 153 36" fill="none" xmlns="http://www.w3.org/2000/svg">
<path fill-rule="evenodd" clip-rule="evenodd" d="M108.525 11.97L108.345 13.11H98.6551L98.2651 15.96H107.955L107.535 18.84L104.895 21.6H110.805C111.385 21.6 111.895 21.42 112.335 21.06C112.775 20.68 113.045 20.2 113.145 19.62L113.655 15.96H123.345L123.735 13.11H114.045L121.815 10.53L122.295 7.14H102.345L101.955 9.99H115.155L108.525 11.97ZM122.985 2.28L123.885 0H118.185L117.285 2.28H115.575L115.335 0H109.635L109.875 2.28H108.195L107.925 0H102.225L102.495 2.28H100.755L100.185 6.27H106.455L106.635 5.13H118.035L117.855 6.27H124.125L124.695 2.28H122.985ZM137.383 2.73H136.093L135.433 0.54H129.853L130.513 1.32L130.963 2.73H127.963L127.303 7.62H129.613L128.743 13.62H135.313L135.133 14.76H127.093L126.733 17.43H134.743L134.623 18.39H126.073L125.713 21.03H149.653L150.013 18.39H140.983L141.103 17.43H149.533L149.893 14.76H141.493L141.673 13.62H148.663L149.533 7.62H151.813L152.473 2.73H149.533L150.823 0.54H144.553L145.243 1.32L144.403 2.73H143.143L143.533 0H136.633L137.623 1.08L137.383 2.73ZM146.563 6.54H132.883L133.033 5.46H146.713L146.563 6.54ZM143.203 10.89H134.983L135.223 9.24H143.443L143.203 10.89ZM85.0974 21.6003L87.0474 18.8103L87.7374 13.6803H83.2374L84.4374 5.04031H88.0074L88.8174 3.84031H92.6874L91.9074 5.04031H96.8274L95.6274 13.6803H91.5474L90.7374 19.6203C90.6574 20.2003 90.4574 20.6803 90.1374 21.0603C89.8374 21.4203 89.4874 21.6003 89.0874 21.6003H85.0974ZM97.6674 0.570312L97.3074 3.15031H84.0474L80.8074 21.6003H76.8474L80.3874 1.65031L79.7874 0.570312H97.6674ZM70.1274 21.6003L72.8874 13.1103H77.5974L74.8374 21.6003H70.1274ZM73.0974 11.9703L72.7674 6.84031H77.5074L77.8374 11.9703H73.0974ZM73.9674 5.70031L73.6374 0.570312H78.3774L78.7074 5.70031H73.9674ZM95.1174 14.7903L95.2074 21.0603H92.2374L92.1474 14.7903H95.1174ZM86.5674 14.7903L84.6774 21.0903H81.7374L83.6574 14.7903H86.5674ZM92.8674 11.3403L93.0174 10.2903H86.8074L86.6574 11.3403H92.8674ZM87.0774 8.40031H93.2874L93.4374 7.35031H87.2274L87.0774 8.40031ZM69.0499 3.42031L69.4399 0.570312H45.4999L45.1099 3.42031H48.5299L46.6699 9.69031H43.6699L43.2499 12.5403H45.8299L43.1299 21.6003H48.8299L51.5299 12.5403H59.7799L58.5199 21.6003H64.2199L65.4799 12.5403H68.3299L68.7499 9.69031H65.8999L66.7699 3.42031H69.0499ZM60.1999 9.69031H52.3699L54.2299 3.42031H61.0699L60.1999 9.69031Z" fill="black"/>
<path fill-rule="evenodd" clip-rule="evenodd" d="M45.461 29.8799C43.9999 29.8799 42.811 31.0687 42.811 32.5299C42.811 33.991 43.9999 35.1799 45.461 35.1799C46.9222 35.1799 48.111 33.991 48.111 32.5299C48.111 31.0687 46.9222 29.8799 45.461 29.8799ZM43.511 32.5299C43.511 31.455 44.3862 30.5799 45.461 30.5799C46.5359 30.5799 47.411 31.455 47.411 32.5299C47.411 33.6047 46.5359 34.4799 45.461 34.4799C44.3862 34.4799 43.511 33.6047 43.511 32.5299ZM49.7269 32.6039H52.4069V32.5959H52.5968C52.7295 32.5811 52.8547 32.5458 52.973 32.4902L52.974 32.4897C53.4426 32.2734 53.7669 31.7975 53.7669 31.2499C53.7669 30.8759 53.6162 30.537 53.37 30.2832L53.3628 30.2759C53.1179 30.031 52.7796 29.8799 52.4049 29.8799H49.0269V35.1799H49.7269V32.6039ZM52.4129 30.5799H49.7269V31.9119H52.4129C52.5067 31.9119 52.6018 31.8911 52.6879 31.848L52.7709 31.8066V31.7955C52.958 31.6762 53.0749 31.4671 53.0749 31.2419C53.0749 31.0041 52.9513 30.8402 52.8789 30.7678C52.7939 30.6828 52.6376 30.5799 52.4129 30.5799ZM56.2246 29.8799C55.4765 29.8799 54.8706 30.4917 54.8706 31.2419V33.8179C54.8706 34.5681 55.4765 35.1799 56.2246 35.1799H60.1626V34.4799H56.2246C55.8618 34.4799 55.5626 34.1807 55.5626 33.8179V32.6119H59.1626V31.9119H55.5626V31.2419C55.5626 30.879 55.8618 30.5799 56.2246 30.5799H60.1626V29.8799H56.2246ZM72.918 29.8799C72.1698 29.8799 71.564 30.4917 71.564 31.2419V31.2739C71.564 31.5636 71.6508 31.8295 71.8008 32.0439L71.8046 32.0493C71.8547 32.1279 71.9115 32.1992 71.9752 32.263C72.2201 32.5003 72.5506 32.6439 72.918 32.6439H74.934C75.4388 32.6439 75.86 33.053 75.86 33.5619C75.86 34.0707 75.4388 34.4799 74.934 34.4799H73.182C72.7262 34.4799 72.3478 34.1474 72.2762 33.7119H71.5708C71.6466 34.5348 72.3394 35.1799 73.182 35.1799H74.934C75.8271 35.1799 76.552 34.455 76.552 33.5619C76.552 33.1765 76.4147 32.8197 76.1899 32.5419C76.1758 32.5272 76.1641 32.5132 76.1558 32.5032L76.1547 32.5019C76.1443 32.4894 76.1384 32.4824 76.1319 32.4759L76.1268 32.4709C75.834 32.1488 75.4099 31.9439 74.934 31.9439H72.918C72.5551 31.9439 72.256 31.6447 72.256 31.2819V31.2499C72.256 30.887 72.5551 30.5879 72.918 30.5879H75.19C75.5122 30.5879 75.7842 30.8238 75.841 31.1308L76.547 31.1251C76.4873 30.4301 75.8998 29.8799 75.19 29.8799H72.918ZM77.4585 32.5299C77.4585 31.0687 78.6473 29.8799 80.1085 29.8799C81.5697 29.8799 82.7585 31.0687 82.7585 32.5299C82.7585 33.991 81.5697 35.1799 80.1085 35.1799C78.6473 35.1799 77.4585 33.991 77.4585 32.5299ZM80.1085 30.5799C79.0337 30.5799 78.1585 31.455 78.1585 32.5299C78.1585 33.6047 79.0337 34.4799 80.1085 34.4799C81.1833 34.4799 82.0585 33.6047 82.0585 32.5299C82.0585 31.455 81.1833 30.5799 80.1085 30.5799ZM83.6655 29.8799V32.5299C83.6655 33.991 84.8544 35.1799 86.3155 35.1799C87.7767 35.1799 88.9655 33.991 88.9655 32.5299V29.8799H88.2655V32.5299C88.2655 33.6047 87.3904 34.4799 86.3155 34.4799C85.2407 34.4799 84.3655 33.6047 84.3655 32.5299V29.8799H83.6655ZM90.7571 35.1799H90.0571V29.8799H93.4431C93.8179 29.8799 94.1561 30.031 94.4011 30.2759C94.646 30.5209 94.7971 30.8591 94.7971 31.2339C94.7971 31.7815 94.4729 32.2574 94.0043 32.4737L94.0033 32.4742C93.8827 32.5309 93.755 32.5664 93.6194 32.5807L93.4042 32.6034L94.301 34.397L94.3016 34.3982L94.7018 35.1799H93.9188L93.4486 34.2615L92.9133 33.2148L92.9127 33.2136L92.8898 33.1666L92.8831 33.1557C92.6816 32.8258 92.3225 32.6039 91.9071 32.6039H90.7571V32.7539V35.1799ZM90.7571 31.7619V31.9039H93.4433C93.5357 31.9039 93.6295 31.8837 93.7146 31.8418C93.9515 31.7371 94.1051 31.5001 94.1051 31.2419C94.1051 31.0041 93.9815 30.8402 93.9092 30.7678C93.8241 30.6828 93.6679 30.5799 93.4431 30.5799H90.7571V30.7299V31.7619ZM98.4796 29.8799C97.0184 29.8799 95.8296 31.0687 95.8296 32.5299C95.8296 33.991 97.0184 35.1799 98.4796 35.1799H101.13V34.4799H98.4796C97.4047 34.4799 96.5296 33.6047 96.5296 32.5299C96.5296 31.455 97.4047 30.5799 98.4796 30.5799H101.13V29.8799H98.4796ZM102.238 31.2419C102.238 30.4917 102.844 29.8799 103.592 29.8799H107.53V30.5799H103.592C103.229 30.5799 102.93 30.879 102.93 31.2419V31.9119H106.53V32.6119H102.93V33.8179C102.93 34.1807 103.229 34.4799 103.592 34.4799H107.53V35.1799H103.592C102.844 35.1799 102.238 34.5681 102.238 33.8179V31.2419ZM115.097 29.8799C113.636 29.8799 112.447 31.0687 112.447 32.5299C112.447 33.991 113.636 35.1799 115.097 35.1799H117.747V34.4799H115.097C114.022 34.4799 113.147 33.6047 113.147 32.5299C113.147 31.455 114.022 30.5799 115.097 30.5799H117.747V29.8799H115.097ZM118.302 32.5299C118.302 31.0687 119.491 29.8799 120.952 29.8799C122.413 29.8799 123.602 31.0687 123.602 32.5299C123.602 33.991 122.413 35.1799 120.952 35.1799C119.491 35.1799 118.302 33.991 118.302 32.5299ZM120.952 30.5799C119.877 30.5799 119.002 31.455 119.002 32.5299C119.002 33.6047 119.877 34.4799 120.952 34.4799C122.027 34.4799 122.902 33.6047 122.902 32.5299C122.902 31.455 122.027 30.5799 120.952 30.5799ZM136.701 29.8799C135.953 29.8799 135.347 30.4917 135.347 31.2419V33.8179C135.347 34.5681 135.953 35.1799 136.701 35.1799H140.639V34.4799H136.701C136.338 34.4799 136.039 34.1807 136.039 33.8179V32.6119H139.639V31.9119H136.039V31.2419C136.039 30.879 136.338 30.5799 136.701 30.5799H140.639V29.8799H136.701ZM141.3 32.5299C141.3 31.0687 142.489 29.8799 143.95 29.8799H146.6V30.5799H143.95C142.875 30.5799 142 31.455 142 32.5299C142 33.6047 142.875 34.4799 143.95 34.4799H145.9V33.1079H144.1V32.4079H146.6V35.1799H143.95C142.489 35.1799 141.3 33.991 141.3 32.5299ZM147.707 31.2419C147.707 30.4917 148.312 29.8799 149.061 29.8799H152.999V30.5799H149.061C148.698 30.5799 148.399 30.879 148.399 31.2419V31.9119H151.999V32.6119H148.399V33.8179C148.399 34.1807 148.698 34.4799 149.061 34.4799H152.999V35.1799H149.061C148.312 35.1799 147.707 34.5681 147.707 33.8179V31.2419ZM129.925 33.5537V29.8877H130.625V33.6599L130.627 33.67C130.684 34.0887 131.016 34.4212 131.435 34.4783L131.445 34.4797L134.241 34.4873V35.1877H131.551C131.295 35.1877 131.054 35.1292 130.834 35.0195C130.511 34.8579 130.248 34.5939 130.095 34.2731L130.093 34.2706C129.984 34.0513 129.925 33.8103 129.925 33.5537ZM124.511 29.8877V33.5537C124.511 33.8103 124.57 34.0513 124.679 34.2706L124.681 34.2731C124.834 34.5939 125.097 34.8579 125.42 35.0195C125.64 35.1292 125.881 35.1877 126.137 35.1877H128.827V34.4873L126.031 34.4797L126.021 34.4783C125.602 34.4212 125.27 34.0887 125.213 33.67L125.211 33.6599V29.8877H124.511ZM65.8612 33.6027V29.8809L66.5612 29.8865V35.0333L65.8026 34.4507L61.9612 31.4886V35.1877H61.2612V30.058L62.0199 30.6406L65.8612 33.6027Z" fill="black"/>
<path fill-rule="evenodd" clip-rule="evenodd" d="M3.69071 31.5998C3.99815 31.8127 4.38964 32.0264 4.76944 32.2146C5.66534 32.6585 6.66441 32.8301 7.66426 32.8301H32L24.6048 25.4487H7.38143V22.6483H0V25.1658C0 26.1657 0.171557 27.1647 0.61549 28.0606C0.803687 28.4404 1.0174 28.8319 1.23024 29.1394C2.00373 30.2566 2.57345 30.8264 3.69071 31.5998ZM0 11.0119V8.49546C0 7.50386 0.168825 6.51312 0.605928 5.62305C0.796195 5.23561 1.01342 4.83456 1.23024 4.52079C2.00273 3.40284 2.57345 2.83381 3.69071 2.06032C3.99814 1.84748 4.38964 1.63376 4.76944 1.44557C5.66534 1.00163 6.66441 0.830078 7.66427 0.830078H32L24.6048 8.22533H7.38143V11.0119H0Z" fill="#1677FF"/>
<path fill-rule="evenodd" clip-rule="evenodd" d="M7.26235 16.8255C7.26235 14.8232 5.63351 13.1943 3.63118 13.1943C1.62884 13.1943 0 14.8232 0 16.8255C0 18.8278 1.62884 20.4567 3.63118 20.4567C5.63351 20.4567 7.26235 18.8278 7.26235 16.8255ZM5.9655 16.8255C5.9655 18.112 4.91765 19.1598 3.63118 19.1598C2.3447 19.1598 1.29685 18.112 1.29685 16.8255C1.29685 15.539 2.3447 14.4912 3.63118 14.4912C4.91765 14.4912 5.9655 15.539 5.9655 16.8255ZM14.0059 13.7649L14.0163 13.7857C14.369 14.1384 14.5869 14.6261 14.5869 15.1655C14.5869 15.954 14.12 16.6388 13.4457 16.95C13.2693 17.033 13.0826 17.0849 12.8854 17.1056H12.8232V17.116H9.34763V20.4567H8.05078V13.1943H12.6261C13.1656 13.1943 13.6532 13.4122 14.0059 13.7649ZM12.9062 15.7777V15.7673C13.1448 15.6635 13.3004 15.4249 13.3004 15.1655C13.3004 14.9269 13.1759 14.7609 13.1033 14.6883C13.0203 14.6053 12.8647 14.5016 12.6364 14.5016H9.34763V15.8399H12.6364C12.7298 15.8399 12.8232 15.8192 12.9062 15.7777ZM16.9154 15.1552C16.9154 14.7921 17.2162 14.4912 17.5794 14.4912H22.8809V13.1943H17.5794C16.5004 13.1943 15.6289 14.0762 15.6289 15.1552V18.4959C15.6289 19.5748 16.5004 20.4567 17.5794 20.4567H22.8809V19.1598H17.5794C17.2162 19.1598 16.9154 18.859 16.9154 18.4959V17.1264H21.584V15.8295H16.9154V15.1552ZM31.1784 13.2047L29.8815 13.1943V17.8215L25.2129 14.2214L23.916 13.2255V20.4671H25.2129V15.871L29.8815 19.4711L31.1784 20.4671V13.2047Z" fill="#30C213"/>
</svg>
